<svg width="26" height="20" viewBox="0 0 26 20" fill="none" xmlns="http://www.w3.org/2000/svg">
<path fill-rule="evenodd" clip-rule="evenodd" d="M25.2709 9.99992C25.2709 9.34408 24.7392 8.81242 24.0834 8.81242H1.91675C1.26091 8.81242 0.729248 9.34408 0.729248 9.99992C0.729248 10.6558 1.26091 11.1874 1.91675 11.1874H24.0834C24.7392 11.1874 25.2709 10.6558 25.2709 9.99992Z" fill="#EEEEEE"/>
<path fill-rule="evenodd" clip-rule="evenodd" d="M25.2709 9.99992C25.2709 9.34408 24.7392 8.81242 24.0834 8.81242H1.91675C1.26091 8.81242 0.729248 9.34408 0.729248 9.99992C0.729248 10.6558 1.26091 11.1874 1.91675 11.1874H24.0834C24.7392 11.1874 25.2709 10.6558 25.2709 9.99992Z" fill="url(#paint0_linear_98_862)"/>
<path fill-rule="evenodd" clip-rule="evenodd" d="M25.2709 2.08325C25.2709 1.42741 24.7392 0.895752 24.0834 0.895752H1.91675C1.26091 0.895752 0.729248 1.42741 0.729248 2.08325C0.729248 2.73909 1.26091 3.27075 1.91675 3.27075H24.0834C24.7392 3.27075 25.2709 2.73909 25.2709 2.08325Z" fill="#EEEEEE"/>
<path fill-rule="evenodd" clip-rule="evenodd" d="M25.2709 2.08325C25.2709 1.42741 24.7392 0.895752 24.0834 0.895752H1.91675C1.26091 0.895752 0.729248 1.42741 0.729248 2.08325C0.729248 2.73909 1.26091 3.27075 1.91675 3.27075H24.0834C24.7392 3.27075 25.2709 2.73909 25.2709 2.08325Z" fill="url(#paint1_linear_98_862)"/>
<path fill-rule="evenodd" clip-rule="evenodd" d="M25.2709 17.9166C25.2709 17.2607 24.7392 16.7291 24.0834 16.7291H1.91675C1.26091 16.7291 0.729248 17.2607 0.729248 17.9166C0.729248 18.5724 1.26091 19.1041 1.91675 19.1041H24.0834C24.7392 19.1041 25.2709 18.5724 25.2709 17.9166Z" fill="#EEEEEE"/>
<path fill-rule="evenodd" clip-rule="evenodd" d="M25.2709 17.9166C25.2709 17.2607 24.7392 16.7291 24.0834 16.7291H1.91675C1.26091 16.7291 0.729248 17.2607 0.729248 17.9166C0.729248 18.5724 1.26091 19.1041 1.91675 19.1041H24.0834C24.7392 19.1041 25.2709 18.5724 25.2709 17.9166Z" fill="url(#paint2_linear_98_862)"/>
<defs>
<linearGradient id="paint0_linear_98_862" x1="0.729248" y1="-2.78466" x2="29.5918" y2="9.44462" gradientUnits="userSpaceOnUse">
<stop stop-color="#0047FF"/>
<stop offset="1" stop-color="#00E0FF"/>
</linearGradient>
<linearGradient id="paint1_linear_98_862" x1="0.729248" y1="-2.78466" x2="29.5918" y2="9.44462" gradientUnits="userSpaceOnUse">
<stop stop-color="#0047FF"/>
<stop offset="1" stop-color="#00E0FF"/>
</linearGradient>
<linearGradient id="paint2_linear_98_862" x1="0.729248" y1="-2.78466" x2="29.5918" y2="9.44462" gradientUnits="userSpaceOnUse">
<stop stop-color="#0047FF"/>
<stop offset="1" stop-color="#00E0FF"/>
</linearGradient>
</defs>
</svg>
