<svg width="36" height="35" viewBox="0 0 36 35" fill="none" xmlns="http://www.w3.org/2000/svg">
<path fill-rule="evenodd" clip-rule="evenodd" d="M32.1369 5.30559H7.34513L5.22686 1.46653C4.98909 1.03561 4.5393 0.768555 4.05128 0.768555H1.35897C0.615511 0.768555 0.0128174 1.37794 0.0128174 2.12967C0.0128174 2.88139 0.615511 3.49078 1.35897 3.49078H3.26082L5.35129 7.27948L10.1724 18.0653L10.1774 18.0763L10.602 19.0263L5.76155 24.2469C5.4135 24.6223 5.30456 25.164 5.47997 25.647C5.65539 26.13 6.08518 26.4717 6.59077 26.5301L11.0028 27.04C16.5215 27.6777 22.094 27.6777 27.6126 27.04L32.0247 26.5301C32.7633 26.4448 33.2937 25.7701 33.2093 25.0233C33.1249 24.2764 32.4576 23.7402 31.719 23.8255L27.3069 24.3353C21.9914 24.9496 16.624 24.9496 11.3085 24.3353L9.55757 24.133L13.1103 20.3013C13.1447 20.2643 13.1766 20.2258 13.2061 20.1861L14.5573 20.3638C16.4507 20.6129 18.3647 20.6618 20.2682 20.5096C24.7077 20.1545 28.8223 18.0185 31.6949 14.5776L32.7325 13.3348C32.7673 13.2931 32.7997 13.2492 32.8293 13.2036L34.7631 10.2239C36.1337 8.11189 34.6353 5.30559 32.1369 5.30559ZM13.3061 17.4541C13.0092 17.415 12.7532 17.2243 12.6282 16.9495L12.6258 16.9442L8.6403 8.02781H32.1369C32.4939 8.02781 32.7079 8.42871 32.5121 8.73043L30.6229 11.6415L29.6376 12.8217C27.2288 15.707 23.7786 17.4981 20.0559 17.7958C18.339 17.9331 16.6126 17.889 14.9047 17.6644L13.3061 17.4541Z" fill="#EEEEEE"/>
<path d="M9.4359 29.3519C7.94898 29.3519 6.74359 30.5707 6.74359 32.0741C6.74359 33.5775 7.94898 34.7963 9.4359 34.7963C10.9228 34.7963 12.1282 33.5775 12.1282 32.0741C12.1282 30.5707 10.9228 29.3519 9.4359 29.3519Z" fill="#EEEEEE"/>
<path d="M26.4872 32.0741C26.4872 30.5707 27.6926 29.3519 29.1795 29.3519C30.6664 29.3519 31.8718 30.5707 31.8718 32.0741C31.8718 33.5775 30.6664 34.7963 29.1795 34.7963C27.6926 34.7963 26.4872 33.5775 26.4872 32.0741Z" fill="#EEEEEE"/>
</svg>
