<svg width="23" height="24" viewBox="0 0 23 24" fill="none" xmlns="http://www.w3.org/2000/svg">
<path d="M20.7885 2.94737H15.9231V2.21053C15.9231 0.989671 14.7349 0 13.2692 0H9.73077C8.26507 0 7.07692 0.989671 7.07692 2.21053V2.94737H2.21154C0.990161 2.94737 0 3.77213 0 4.78947V6.26316C0 6.67013 0.396031 7 0.884615 7H22.1154C22.604 7 23 6.67013 23 6.26316V4.78947C23 3.77213 22.0098 2.94737 20.7885 2.94737ZM8.84615 2.21053C8.84615 1.80434 9.24312 1.47368 9.73077 1.47368H13.2692C13.7569 1.47368 14.1538 1.80434 14.1538 2.21053V2.94737H8.84615V2.21053Z" fill="#E50347"/>
<path d="M1.27376 9C1.11744 9 0.992871 9.10912 1.00032 9.23954L1.72307 21.9091C1.78987 23.0817 2.94298 24 4.34796 24H17.652C19.057 24 20.2101 23.0817 20.2769 21.9091L20.9997 9.23954C21.0071 9.10912 20.8826 9 20.7262 9H1.27376ZM14.5042 10.8293C14.5042 10.425 14.8963 10.0976 15.3803 10.0976C15.8643 10.0976 16.2564 10.425 16.2564 10.8293V20.3415C16.2564 20.7457 15.8643 21.0732 15.3803 21.0732C14.8963 21.0732 14.5042 20.7457 14.5042 20.3415V10.8293ZM10.1239 10.8293C10.1239 10.425 10.516 10.0976 11 10.0976C11.484 10.0976 11.8761 10.425 11.8761 10.8293V20.3415C11.8761 20.7457 11.484 21.0732 11 21.0732C10.516 21.0732 10.1239 20.7457 10.1239 20.3415V10.8293ZM5.74364 10.8293C5.74364 10.425 6.13567 10.0976 6.6197 10.0976C7.10372 10.0976 7.49576 10.425 7.49576 10.8293V20.3415C7.49576 20.7457 7.10372 21.0732 6.6197 21.0732C6.13567 21.0732 5.74364 20.7457 5.74364 20.3415V10.8293Z" fill="#E50347"/>
</svg>
