<svg width="40" height="40" viewBox="0 0 40 40" fill="none" xmlns="http://www.w3.org/2000/svg">
<path d="M34.7364 20.0002H15.054M8.10668 20.0002H5.26465M8.10668 20.0002C8.10668 19.0792 8.47257 18.1958 9.12387 17.5445C9.77516 16.8932 10.6585 16.5273 11.5796 16.5273C12.5006 16.5273 13.384 16.8932 14.0353 17.5445C14.6866 18.1958 15.0525 19.0792 15.0525 20.0002C15.0525 20.9213 14.6866 21.8046 14.0353 22.4559C13.384 23.1072 12.5006 23.4731 11.5796 23.4731C10.6585 23.4731 9.77516 23.1072 9.12387 22.4559C8.47257 21.8046 8.10668 20.9213 8.10668 20.0002ZM34.7364 30.5256H25.5794M25.5794 30.5256C25.5794 31.4469 25.2127 32.3313 24.5612 32.9827C23.9098 33.6341 23.0262 34.0001 22.105 34.0001C21.1839 34.0001 20.3006 33.6326 19.6493 32.9813C18.998 32.33 18.6321 31.4467 18.6321 30.5256M25.5794 30.5256C25.5794 29.6044 25.2127 28.7216 24.5612 28.0702C23.9098 27.4187 23.0262 27.0527 22.105 27.0527C21.1839 27.0527 20.3006 27.4186 19.6493 28.0699C18.998 28.7212 18.6321 29.6046 18.6321 30.5256M18.6321 30.5256H5.26465M34.7364 9.47484H29.7899M22.8426 9.47484H5.26465M22.8426 9.47484C22.8426 8.55377 23.2084 7.67043 23.8597 7.01914C24.511 6.36785 25.3944 6.00195 26.3154 6.00195C26.7715 6.00195 27.2231 6.09178 27.6445 6.26631C28.0658 6.44084 28.4487 6.69665 28.7711 7.01914C29.0936 7.34163 29.3494 7.72447 29.524 8.14582C29.6985 8.56717 29.7883 9.01877 29.7883 9.47484C29.7883 9.93091 29.6985 10.3825 29.524 10.8039C29.3494 11.2252 29.0936 11.6081 28.7711 11.9305C28.4487 12.253 28.0658 12.5088 27.6445 12.6834C27.2231 12.8579 26.7715 12.9477 26.3154 12.9477C25.3944 12.9477 24.511 12.5818 23.8597 11.9305C23.2084 11.2792 22.8426 10.3959 22.8426 9.47484Z" stroke="#EEEEEE" stroke-width="2.5" stroke-miterlimit="10" stroke-linecap="round"/>
</svg>
