<svg width="33" height="32" viewBox="0 0 33 32" fill="none" xmlns="http://www.w3.org/2000/svg">
<path d="M6.9126 13.8365C9.3953 19.247 13.813 23.5486 19.3053 25.8806L20.1857 26.2731C22.2 27.1711 24.5679 26.4889 25.7964 24.6566L26.947 22.9407C27.321 22.3829 27.2071 21.6315 26.6846 21.2097L22.7827 18.06C22.2096 17.5974 21.3669 17.7051 20.9284 18.2971L19.7214 19.9268C16.6241 18.3981 14.1094 15.882 12.5816 12.7828L14.2104 11.5751C14.802 11.1364 14.9097 10.2932 14.4473 9.71971L11.2994 5.81543C10.8779 5.29267 10.1272 5.17864 9.56963 5.5527L7.84293 6.71117C6.00028 7.94743 5.32224 10.3363 6.2404 12.3571L6.91159 13.8343L6.9126 13.8365Z" fill="url(#paint0_linear_202_800)"/>
<defs>
<linearGradient id="paint0_linear_202_800" x1="5.83337" y1="1.02095" x2="32.7654" y2="9.48741" gradientUnits="userSpaceOnUse">
<stop stop-color="#0047FF"/>
<stop offset="1" stop-color="#00E0FF"/>
</linearGradient>
</defs>
</svg>
