<svg width="170" height="171" viewBox="0 0 170 171" fill="none" xmlns="http://www.w3.org/2000/svg">
<path d="M31.6952 40.9248C31.6952 44.5572 31.6771 48.0746 31.6598 51.4754C31.5364 75.5846 31.4389 94.6271 38.1805 111.111C41.7223 119.771 47.0369 127.423 54.4294 134.505C62.0996 141.854 72.2305 148.816 85.4004 155.792C85.8419 156.025 86.3301 156.147 86.8253 156.147C87.3205 156.147 87.8088 156.025 88.2502 155.792C101.42 148.817 111.551 141.854 119.221 134.505C126.612 127.423 131.927 119.771 135.47 111.111C142.212 94.6277 142.114 75.5846 141.991 51.4754C141.974 48.0746 141.955 44.558 141.955 40.9248C141.956 40.2669 141.766 39.6243 141.41 39.0804C141.055 38.5366 140.551 38.1167 139.964 37.8755L87.9774 16.5419C87.2369 16.238 86.4133 16.238 85.6727 16.5419L33.6877 37.8755C33.1003 38.1166 32.596 38.5364 32.2406 39.0802C31.8853 39.6241 31.6952 40.2668 31.6952 40.9248ZM37.9494 51.5104C37.9632 48.8005 37.9744 46.0163 37.9829 43.1575L86.8243 23.1143L135.666 43.1575C135.671 46.0184 135.682 48.8027 135.699 51.5104C135.941 98.7355 136.063 122.664 86.8243 149.187C37.5854 122.664 37.708 98.7355 37.9494 51.5104ZM62.8885 86.4217C62.3557 85.7653 62.0918 84.917 62.1536 84.0597C62.2154 83.2024 62.598 82.4047 63.219 81.8386C63.8399 81.2725 64.6494 80.9834 65.473 81.0335C66.2966 81.0836 67.0684 81.469 67.6218 82.1066L81.0172 98.0601L112.202 67.2984C112.808 66.7008 113.616 66.3785 114.45 66.4023C115.284 66.4261 116.075 66.7941 116.648 67.4253C117.221 68.0565 117.531 68.8993 117.508 69.7682C117.485 70.6371 117.132 71.4609 116.526 72.0585L82.966 105.163C82.3819 105.739 81.6083 106.06 80.8041 106.06C80.7551 106.06 80.7055 106.06 80.6563 106.056C80.2335 106.036 79.8191 105.926 79.4379 105.734C79.0567 105.543 78.7165 105.273 78.4378 104.941L62.8885 86.4217Z" fill="#EEEEEE"/>
<path d="M31.6952 40.9248C31.6952 44.5572 31.6771 48.0746 31.6598 51.4754C31.5364 75.5846 31.4389 94.6271 38.1805 111.111C41.7223 119.771 47.0369 127.423 54.4294 134.505C62.0996 141.854 72.2305 148.816 85.4004 155.792C85.8419 156.025 86.3301 156.147 86.8253 156.147C87.3205 156.147 87.8088 156.025 88.2502 155.792C101.42 148.817 111.551 141.854 119.221 134.505C126.612 127.423 131.927 119.771 135.47 111.111C142.212 94.6277 142.114 75.5846 141.991 51.4754C141.974 48.0746 141.955 44.558 141.955 40.9248C141.956 40.2669 141.766 39.6243 141.41 39.0804C141.055 38.5366 140.551 38.1167 139.964 37.8755L87.9774 16.5419C87.2369 16.238 86.4133 16.238 85.6727 16.5419L33.6877 37.8755C33.1003 38.1166 32.596 38.5364 32.2406 39.0802C31.8853 39.6241 31.6952 40.2668 31.6952 40.9248ZM37.9494 51.5104C37.9632 48.8005 37.9744 46.0163 37.9829 43.1575L86.8243 23.1143L135.666 43.1575C135.671 46.0184 135.682 48.8027 135.699 51.5104C135.941 98.7355 136.063 122.664 86.8243 149.187C37.5854 122.664 37.708 98.7355 37.9494 51.5104ZM62.8885 86.4217C62.3557 85.7653 62.0918 84.917 62.1536 84.0597C62.2154 83.2024 62.598 82.4047 63.219 81.8386C63.8399 81.2725 64.6494 80.9834 65.473 81.0335C66.2966 81.0836 67.0684 81.469 67.6218 82.1066L81.0172 98.0601L112.202 67.2984C112.808 66.7008 113.616 66.3785 114.45 66.4023C115.284 66.4261 116.075 66.7941 116.648 67.4253C117.221 68.0565 117.531 68.8993 117.508 69.7682C117.485 70.6371 117.132 71.4609 116.526 72.0585L82.966 105.163C82.3819 105.739 81.6083 106.06 80.8041 106.06C80.7551 106.06 80.7055 106.06 80.6563 106.056C80.2335 106.036 79.8191 105.926 79.4379 105.734C79.0567 105.543 78.7165 105.273 78.4378 104.941L62.8885 86.4217Z" fill="url(#paint0_radial_98_931)"/>
<defs>
<radialGradient id="paint0_radial_98_931" cx="0" cy="0" r="1" gradientUnits="userSpaceOnUse" gradientTransform="translate(124.355 16.5152) rotate(94.2515) scale(175.493 430.128)">
<stop stop-color="#00E0FF"/>
<stop offset="0.895" stop-color="#0047FF"/>
</radialGradient>
</defs>
</svg>
