<svg width="21" height="20" viewBox="0 0 21 20" fill="none" xmlns="http://www.w3.org/2000/svg">
<g clip-path="url(#clip0_269_697)">
<path d="M10.0708 0C4.54381 0 0.0708008 4.4725 0.0708008 10C0.0708008 15.5269 4.5433 20 10.0708 20C15.5978 20 20.0708 15.5275 20.0708 10C20.0708 4.47309 15.5983 0 10.0708 0ZM10.0708 18.6046C5.32619 18.6046 1.46615 14.7446 1.46615 10C1.46615 5.25535 5.32619 1.39535 10.0708 1.39535C14.8154 1.39535 18.6754 5.25535 18.6754 10C18.6754 14.7446 14.8154 18.6046 10.0708 18.6046Z" fill="#515151"/>
<path d="M10.0644 8C9.48371 8 9.0708 8.23955 9.0708 8.59248V13.395C9.0708 13.6975 9.48371 14 10.0644 14C10.6192 14 11.0708 13.6975 11.0708 13.395V8.59241C11.0708 8.23951 10.6192 8 10.0644 8Z" fill="#515151"/>
<path d="M10.0769 5C9.51248 5 9.0708 5.46153 9.0708 5.99299C9.0708 6.52449 9.51251 7 10.0769 7C10.6291 7 11.0708 6.52449 11.0708 5.99299C11.0708 5.46153 10.629 5 10.0769 5Z" fill="#515151"/>
</g>
<defs>
<clipPath id="clip0_269_697">
<rect width="20" height="20" fill="white" transform="translate(0.0708008)"/>
</clipPath>
</defs>
</svg>
