<svg width="33" height="32" viewBox="0 0 33 32" fill="none" xmlns="http://www.w3.org/2000/svg">
<path d="M16.5 6C14.379 6.00246 12.3457 6.83105 10.8459 8.30402C9.34616 9.77699 8.50251 11.7741 8.50001 13.8571C8.49805 15.5594 9.06416 17.2153 10.1116 18.5714C10.1116 18.5714 10.3298 18.8536 10.3655 18.8943L16.5 26L22.6375 18.8907C22.6695 18.8529 22.8884 18.5714 22.8884 18.5714L22.8891 18.5693C23.9359 17.2136 24.5017 15.5585 24.5 13.8571C24.4975 11.7741 23.6538 9.77699 22.1541 8.30402C20.6543 6.83105 18.621 6.00246 16.5 6ZM16.5 16.7143C15.9246 16.7143 15.3622 16.5467 14.8838 16.2328C14.4054 15.9188 14.0325 15.4726 13.8124 14.9505C13.5922 14.4284 13.5346 13.854 13.6468 13.2997C13.7591 12.7455 14.0361 12.2364 14.443 11.8368C14.8498 11.4373 15.3682 11.1651 15.9325 11.0549C16.4968 10.9447 17.0817 11.0012 17.6133 11.2175C18.1448 11.4337 18.5992 11.7999 18.9188 12.2698C19.2385 12.7397 19.4091 13.2921 19.4091 13.8571C19.4081 14.6146 19.1013 15.3408 18.556 15.8764C18.0106 16.412 17.2712 16.7133 16.5 16.7143Z" fill="url(#paint0_linear_202_823)"/>
<defs>
<linearGradient id="paint0_linear_202_823" x1="8.5" y1="1.95745" x2="29.3749" y2="7.2073" gradientUnits="userSpaceOnUse">
<stop stop-color="#0047FF"/>
<stop offset="1" stop-color="#00E0FF"/>
</linearGradient>
</defs>
</svg>
