<svg width="22" height="22" viewBox="0 0 22 22" fill="none" xmlns="http://www.w3.org/2000/svg">
<path d="M1.4126 8.83688C3.8953 14.2474 8.31297 18.549 13.8053 20.881L14.6857 21.2735C16.7 22.1715 19.0679 21.4893 20.2964 19.657L21.447 17.9411C21.821 17.3832 21.7071 16.6318 21.1846 16.21L17.2827 13.0604C16.7096 12.5977 15.8669 12.7055 15.4284 13.2974L14.2214 14.9272C11.1241 13.3984 8.60944 10.8823 7.08159 7.7832L8.71037 6.57544C9.30197 6.13676 9.40967 5.29352 8.94731 4.72007L5.79941 0.815793C5.37792 0.293033 4.62717 0.179005 4.06963 0.553066L2.34293 1.71154C0.500277 2.9478 -0.177765 5.33662 0.7404 7.35743L1.41159 8.83467L1.4126 8.83688Z" fill="#EEEEEE"/>
<path d="M1.4126 8.83688C3.8953 14.2474 8.31297 18.549 13.8053 20.881L14.6857 21.2735C16.7 22.1715 19.0679 21.4893 20.2964 19.657L21.447 17.9411C21.821 17.3832 21.7071 16.6318 21.1846 16.21L17.2827 13.0604C16.7096 12.5977 15.8669 12.7055 15.4284 13.2974L14.2214 14.9272C11.1241 13.3984 8.60944 10.8823 7.08159 7.7832L8.71037 6.57544C9.30197 6.13676 9.40967 5.29352 8.94731 4.72007L5.79941 0.815793C5.37792 0.293033 4.62717 0.179005 4.06963 0.553066L2.34293 1.71154C0.500277 2.9478 -0.177765 5.33662 0.7404 7.35743L1.41159 8.83467L1.4126 8.83688Z" fill="url(#paint0_linear_98_874)"/>
<defs>
<linearGradient id="paint0_linear_98_874" x1="0.333374" y1="-3.97868" x2="27.2654" y2="4.48778" gradientUnits="userSpaceOnUse">
<stop stop-color="#0047FF"/>
<stop offset="1" stop-color="#00E0FF"/>
</linearGradient>
</defs>
</svg>
