<svg width="168" height="169" viewBox="0 0 168 169" fill="none" xmlns="http://www.w3.org/2000/svg">
<path d="M116.06 105.509C116.813 105.206 117.598 104.974 118.411 104.841C126.906 103.449 132.761 95.3119 131.467 86.7441C130.88 83.7906 131.828 79.7391 134.638 76.8602C140.671 70.6788 140.666 60.6251 134.584 54.4061C132.09 51.8554 130.922 48.2171 131.465 44.61C132.761 36.0121 126.917 27.877 118.392 26.4679C114.885 25.8877 111.82 23.6308 110.195 20.4331C106.254 12.6751 96.792 9.55623 89.073 13.4993C85.8976 15.1247 82.0998 15.1227 78.9112 13.4925C71.2144 9.56248 61.7478 12.6714 57.8028 20.4314C56.1781 23.6303 53.1124 25.8871 49.5621 26.4739C41.08 27.8764 35.2362 36.0116 36.5409 44.6705C37.0759 48.2168 35.9072 51.8551 33.37 54.4479C27.3311 60.6248 27.3266 70.6785 33.4225 76.9253C35.9114 79.4752 37.0778 83.1112 36.5364 86.7015C35.2362 95.3105 41.0932 103.449 49.5902 104.841C50.4013 104.974 51.1852 105.205 51.9368 105.508L31.5876 139.885C30.5421 141.648 32.1792 143.805 34.127 143.237L50.5775 138.512L54.2222 155.421C54.6536 157.434 57.3016 157.867 58.3406 156.104L81.5522 116.894C83.1626 116.534 84.8353 116.534 86.4463 116.894L109.658 156.104C110.688 157.856 113.342 157.442 113.776 155.421L117.421 138.512L133.871 143.237C135.818 143.801 137.458 141.65 136.411 139.885L116.06 105.509ZM57.4018 148.849L54.4546 135.182C54.1801 133.903 52.8966 133.123 51.6477 133.48L38.3523 137.299L55.6945 108.002C56.534 108.84 57.2581 109.803 57.8068 110.885C61.0893 117.354 68.2012 120.585 74.946 119.21L57.4018 148.849ZM76.8935 113.778C71.3982 116.594 64.6181 114.365 61.8025 108.811C59.5261 104.321 55.2261 101.16 50.3056 100.354C44.2316 99.3595 40.0475 93.5421 40.9815 87.3374C41.7292 82.3855 40.1 77.2996 36.5564 73.6667C32.2432 69.2473 32.2452 62.0608 36.6069 57.6014C40.0935 54.0344 41.7295 48.9447 40.9706 43.9238C40.045 37.7782 44.2226 31.9617 50.3297 30.952C55.2373 30.1409 59.5241 26.9843 61.7983 22.5095C64.6108 16.9723 71.3732 14.7322 76.9003 17.5554C81.3428 19.8275 86.652 19.8255 91.112 17.5486C96.616 14.737 103.383 16.9638 106.199 22.5104C108.473 26.984 112.76 30.1409 117.711 30.9583C123.775 31.9614 127.952 37.7776 127.018 43.9846C126.268 48.9444 127.904 54.0338 131.434 57.6451C135.752 62.0599 135.754 69.2465 131.377 73.7312C125.355 79.9041 127.079 87.816 127.022 87.3866C127.95 93.541 123.764 99.3586 117.692 100.354C112.769 101.16 108.473 104.321 106.195 108.81C103.381 114.363 96.614 116.59 91.0971 113.775C86.652 111.505 81.3428 111.505 76.8935 113.778ZM116.349 133.48C115.093 133.126 113.816 133.907 113.543 135.182L110.595 148.849L93.048 119.205C94.0741 119.414 95.1075 119.538 96.1361 119.538C101.866 119.538 107.407 116.371 110.19 110.886C110.738 109.803 111.463 108.841 112.302 108.003L129.645 137.299L116.349 133.48Z" fill="#EEEEEE"/>
<path d="M116.06 105.509C116.813 105.206 117.598 104.974 118.411 104.841C126.906 103.449 132.761 95.3119 131.467 86.7441C130.88 83.7906 131.828 79.7391 134.638 76.8602C140.671 70.6788 140.666 60.6251 134.584 54.4061C132.09 51.8554 130.922 48.2171 131.465 44.61C132.761 36.0121 126.917 27.877 118.392 26.4679C114.885 25.8877 111.82 23.6308 110.195 20.4331C106.254 12.6751 96.792 9.55623 89.073 13.4993C85.8976 15.1247 82.0998 15.1227 78.9112 13.4925C71.2144 9.56248 61.7478 12.6714 57.8028 20.4314C56.1781 23.6303 53.1124 25.8871 49.5621 26.4739C41.08 27.8764 35.2362 36.0116 36.5409 44.6705C37.0759 48.2168 35.9072 51.8551 33.37 54.4479C27.3311 60.6248 27.3266 70.6785 33.4225 76.9253C35.9114 79.4752 37.0778 83.1112 36.5364 86.7015C35.2362 95.3105 41.0932 103.449 49.5902 104.841C50.4013 104.974 51.1852 105.205 51.9368 105.508L31.5876 139.885C30.5421 141.648 32.1792 143.805 34.127 143.237L50.5775 138.512L54.2222 155.421C54.6536 157.434 57.3016 157.867 58.3406 156.104L81.5522 116.894C83.1626 116.534 84.8353 116.534 86.4463 116.894L109.658 156.104C110.688 157.856 113.342 157.442 113.776 155.421L117.421 138.512L133.871 143.237C135.818 143.801 137.458 141.65 136.411 139.885L116.06 105.509ZM57.4018 148.849L54.4546 135.182C54.1801 133.903 52.8966 133.123 51.6477 133.48L38.3523 137.299L55.6945 108.002C56.534 108.84 57.2581 109.803 57.8068 110.885C61.0893 117.354 68.2012 120.585 74.946 119.21L57.4018 148.849ZM76.8935 113.778C71.3982 116.594 64.6181 114.365 61.8025 108.811C59.5261 104.321 55.2261 101.16 50.3056 100.354C44.2316 99.3595 40.0475 93.5421 40.9815 87.3374C41.7292 82.3855 40.1 77.2996 36.5564 73.6667C32.2432 69.2473 32.2452 62.0608 36.6069 57.6014C40.0935 54.0344 41.7295 48.9447 40.9706 43.9238C40.045 37.7782 44.2226 31.9617 50.3297 30.952C55.2373 30.1409 59.5241 26.9843 61.7983 22.5095C64.6108 16.9723 71.3732 14.7322 76.9003 17.5554C81.3428 19.8275 86.652 19.8255 91.112 17.5486C96.616 14.737 103.383 16.9638 106.199 22.5104C108.473 26.984 112.76 30.1409 117.711 30.9583C123.775 31.9614 127.952 37.7776 127.018 43.9846C126.268 48.9444 127.904 54.0338 131.434 57.6451C135.752 62.0599 135.754 69.2465 131.377 73.7312C125.355 79.9041 127.079 87.816 127.022 87.3866C127.95 93.541 123.764 99.3586 117.692 100.354C112.769 101.16 108.473 104.321 106.195 108.81C103.381 114.363 96.614 116.59 91.0971 113.775C86.652 111.505 81.3428 111.505 76.8935 113.778ZM116.349 133.48C115.093 133.126 113.816 133.907 113.543 135.182L110.595 148.849L93.048 119.205C94.0741 119.414 95.1075 119.538 96.1361 119.538C101.866 119.538 107.407 116.371 110.19 110.886C110.738 109.803 111.463 108.841 112.302 108.003L129.645 137.299L116.349 133.48Z" fill="url(#paint0_radial_98_914)"/>
<path d="M117.047 65.6525C117.047 47.2117 102.221 32.2094 83.9986 32.2094C65.7763 32.2094 50.9505 47.2117 50.9505 65.6525C50.9505 84.1068 65.7763 99.1209 83.9986 99.1209C102.221 99.1209 117.047 84.1068 117.047 65.6525ZM83.9986 94.5763C68.252 94.5763 55.4413 81.6011 55.4413 65.6528C55.4413 49.7184 68.2517 36.7546 83.9986 36.7546C99.7456 36.7546 112.556 49.7184 112.556 65.6528C112.556 81.6011 99.7453 94.5763 83.9986 94.5763Z" fill="#EEEEEE"/>
<path d="M117.047 65.6525C117.047 47.2117 102.221 32.2094 83.9986 32.2094C65.7763 32.2094 50.9505 47.2117 50.9505 65.6525C50.9505 84.1068 65.7763 99.1209 83.9986 99.1209C102.221 99.1209 117.047 84.1068 117.047 65.6525ZM83.9986 94.5763C68.252 94.5763 55.4413 81.6011 55.4413 65.6528C55.4413 49.7184 68.2517 36.7546 83.9986 36.7546C99.7456 36.7546 112.556 49.7184 112.556 65.6528C112.556 81.6011 99.7453 94.5763 83.9986 94.5763Z" fill="url(#paint1_radial_98_914)"/>
<path d="M93.5396 55.5968L78.4023 70.9154L74.4573 66.9221C73.5803 66.0345 72.159 66.0345 71.2819 66.9221C70.4049 67.8085 70.4049 69.2479 71.2819 70.1355L76.8143 75.7353C77.6914 76.6228 79.1129 76.6222 79.9897 75.7353L96.7144 58.8102C97.5915 57.9226 97.5915 56.4844 96.7144 55.5968C95.8377 54.709 94.4167 54.709 93.5396 55.5968Z" fill="#EEEEEE"/>
<path d="M93.5396 55.5968L78.4023 70.9154L74.4573 66.9221C73.5803 66.0345 72.159 66.0345 71.2819 66.9221C70.4049 67.8085 70.4049 69.2479 71.2819 70.1355L76.8143 75.7353C77.6914 76.6228 79.1129 76.6222 79.9897 75.7353L96.7144 58.8102C97.5915 57.9226 97.5915 56.4844 96.7144 55.5968C95.8377 54.709 94.4167 54.709 93.5396 55.5968Z" fill="url(#paint2_radial_98_914)"/>
<defs>
<radialGradient id="paint0_radial_98_914" cx="0" cy="0" r="1" gradientUnits="userSpaceOnUse" gradientTransform="translate(121.5 12) rotate(94.0856) scale(182.464 429.883)">
<stop stop-color="#00E0FF"/>
<stop offset="0.895" stop-color="#0047FF"/>
</radialGradient>
<radialGradient id="paint1_radial_98_914" cx="0" cy="0" r="1" gradientUnits="userSpaceOnUse" gradientTransform="translate(121.5 12) rotate(94.0856) scale(182.464 429.883)">
<stop stop-color="#00E0FF"/>
<stop offset="0.895" stop-color="#0047FF"/>
</radialGradient>
<radialGradient id="paint2_radial_98_914" cx="0" cy="0" r="1" gradientUnits="userSpaceOnUse" gradientTransform="translate(121.5 12) rotate(94.0856) scale(182.464 429.883)">
<stop stop-color="#00E0FF"/>
<stop offset="0.895" stop-color="#0047FF"/>
</radialGradient>
</defs>
</svg>
