<svg width="24" height="24" viewBox="0 0 24 24" fill="none" xmlns="http://www.w3.org/2000/svg">
<path fill-rule="evenodd" clip-rule="evenodd" d="M15.18 16.5942C11.6463 19.4244 6.47376 19.2017 3.19805 15.926C-0.316668 12.4113 -0.316668 6.71277 3.19805 3.19805C6.71277 -0.316668 12.4113 -0.316667 15.926 3.19805C19.2017 6.47376 19.4244 11.6463 16.5942 15.18L23.4684 22.0542C23.8589 22.4447 23.8589 23.0779 23.4684 23.4684C23.0779 23.8589 22.4447 23.8589 22.0542 23.4684L15.18 16.5942ZM4.61226 14.5118C1.87859 11.7781 1.87859 7.34593 4.61226 4.61226C7.34593 1.87859 11.7781 1.87859 14.5118 4.61226C17.2434 7.34393 17.2454 11.7716 14.5178 14.5057C14.5158 14.5077 14.5137 14.5097 14.5117 14.5117C14.5097 14.5137 14.5077 14.5157 14.5057 14.5178C11.7716 17.2454 7.34393 17.2434 4.61226 14.5118Z" fill="#EEEEEE"/>
</svg>
