<svg width="169" height="169" viewBox="0 0 169 169" fill="none" xmlns="http://www.w3.org/2000/svg">
<path d="M129.365 15.1146C118.196 26.1935 111.152 40.6967 109.384 56.2539L105.337 92.4429C105.299 92.7885 105.334 93.1384 105.441 93.4697C105.548 93.801 105.724 94.1063 105.958 94.3655C106.192 94.6248 106.479 94.8322 106.799 94.9743C107.12 95.1164 107.467 95.1899 107.818 95.1901C109.806 95.1901 111.712 95.9719 113.117 97.3635C114.522 98.7551 115.311 100.643 115.311 102.611C115.311 104.579 114.522 106.466 113.117 107.858C111.712 109.249 109.806 110.031 107.818 110.031C106.166 110.048 104.519 110.22 102.9 110.546C100.994 107.259 98.8537 104.111 96.4955 101.126C91.6134 94.6822 87.0043 88.5941 87.0043 79.5246V50.6176C91.1316 44.5193 93.44 37.3926 93.6648 30.0546C93.4139 22.4279 90.9259 15.0387 86.5048 8.78908C86.261 8.49847 85.9556 8.26459 85.6103 8.10408C85.2649 7.94357 84.8881 7.86035 84.5066 7.86035C84.1251 7.86035 83.7483 7.94357 83.403 8.10408C83.0577 8.26459 82.7522 8.49847 82.5085 8.78908C78.0873 15.0387 75.5994 22.4279 75.3484 30.0546C75.5732 37.3926 77.8816 44.5193 82.0089 50.6176V79.5246C82.0089 88.5941 77.3999 94.6954 72.5177 101.126C70.1595 104.111 68.0194 107.259 66.1136 110.546C64.4942 110.22 62.8472 110.048 61.1949 110.031C59.2076 110.031 57.3017 109.249 55.8965 107.858C54.4912 106.466 53.7018 104.579 53.7018 102.611C53.7018 100.643 54.4912 98.7551 55.8965 97.3635C57.3017 95.9719 59.2076 95.1901 61.1949 95.1901C61.5461 95.1899 61.8933 95.1164 62.2139 94.9743C62.5344 94.8322 62.8212 94.6248 63.0553 94.3655C63.2894 94.1063 63.4657 93.801 63.5726 93.4697C63.6796 93.1384 63.7148 92.7885 63.6759 92.4429L59.6163 56.2539C57.8484 40.6967 50.8041 26.1935 39.6348 15.1146C39.2855 14.7692 38.8406 14.5339 38.3564 14.4387C37.8722 14.3434 37.3704 14.3924 36.9142 14.5794C36.4581 14.7665 36.0682 15.0832 35.7937 15.4895C35.5192 15.8959 35.3725 16.3737 35.3721 16.8626V132.293C35.3721 132.949 35.6352 133.578 36.1036 134.042C36.572 134.505 37.2073 134.766 37.8698 134.766H63.5127C68.1218 149.403 82.1422 160.016 82.9847 160.642C83.4239 160.965 83.9563 161.139 84.5033 161.139C85.0503 161.139 85.5827 160.965 86.0219 160.642C86.8645 160.016 100.885 149.403 105.494 134.766H131.13C131.793 134.766 132.428 134.505 132.896 134.042C133.365 133.578 133.628 132.949 133.628 132.293V16.8626C133.627 16.3737 133.481 15.8959 133.206 15.4895C132.932 15.0832 132.542 14.7665 132.086 14.5794C131.63 14.3924 131.128 14.3434 130.644 14.4387C130.159 14.5339 129.714 14.7692 129.365 15.1146ZM40.3808 23.2739C48.2996 32.855 53.255 44.4975 54.6509 56.8014L58.4374 90.5465C56.0983 91.0787 53.963 92.2658 52.2861 93.9662C50.6092 95.6666 49.4614 97.8087 48.9795 100.137H40.3808V23.2739ZM62.0274 125.697C62.037 127.077 62.1483 128.455 62.3604 129.819H40.3808V105.084H48.9562C49.5365 107.875 51.07 110.382 53.2985 112.184C55.527 113.986 58.3145 114.973 61.1915 114.978C62.1067 114.992 63.02 115.065 63.9257 115.196C62.6587 118.554 62.0156 122.112 62.0274 125.697ZM80.3438 30.0546C80.4925 24.7792 81.9202 19.6167 84.5066 15.0025C87.0931 19.6167 88.5208 24.7792 88.6695 30.0546C88.5208 35.3299 87.0931 40.4925 84.5066 45.1067C81.9202 40.4925 80.4925 35.3299 80.3438 30.0546ZM67.0228 125.697C67.0149 122.524 67.6197 119.38 68.8045 116.433C71.7849 117.576 74.4639 119.375 76.639 121.694C78.814 124.013 80.4282 126.791 81.3596 129.819H67.4025C67.1553 128.458 67.0283 127.079 67.0228 125.697ZM82.0089 153.271C76.2773 148.141 71.7585 141.823 68.7745 134.766H82.0089V153.271ZM84.5066 124.292C81.6759 118.699 76.8845 114.32 71.0291 111.974C72.7042 109.246 74.5355 106.615 76.514 104.095C79.6774 100.241 82.3609 96.0246 84.5066 91.5359C86.6524 96.0246 89.3359 100.241 92.4993 104.095C94.4777 106.615 96.309 109.246 97.9842 111.974C92.1287 114.32 87.3373 118.699 84.5066 124.292ZM87.0043 153.271V134.766H100.239C97.2548 141.823 92.736 148.141 87.0043 153.271ZM101.611 129.819H87.6537C88.585 126.791 90.1992 124.013 92.3743 121.694C94.5494 119.375 97.2284 117.576 100.209 116.433C101.394 119.38 101.998 122.524 101.99 125.697C101.985 127.079 101.858 128.458 101.611 129.819ZM128.633 129.819H106.653C106.865 128.455 106.976 127.077 106.986 125.697C106.998 122.112 106.355 118.554 105.088 115.196C105.992 115.065 106.904 114.992 107.818 114.978C110.695 114.973 113.483 113.986 115.711 112.184C117.94 110.382 119.473 107.875 120.054 105.084H128.633V129.819ZM128.633 100.137H120.034C119.552 97.8087 118.404 95.6666 116.727 93.9662C115.05 92.2658 112.915 91.0787 110.576 90.5465L114.362 56.8014C115.758 44.4975 120.714 32.855 128.633 23.2739V100.137Z" fill="#EEEEEE"/>
<path d="M129.365 15.1146C118.196 26.1935 111.152 40.6967 109.384 56.2539L105.337 92.4429C105.299 92.7885 105.334 93.1384 105.441 93.4697C105.548 93.801 105.724 94.1063 105.958 94.3655C106.192 94.6248 106.479 94.8322 106.799 94.9743C107.12 95.1164 107.467 95.1899 107.818 95.1901C109.806 95.1901 111.712 95.9719 113.117 97.3635C114.522 98.7551 115.311 100.643 115.311 102.611C115.311 104.579 114.522 106.466 113.117 107.858C111.712 109.249 109.806 110.031 107.818 110.031C106.166 110.048 104.519 110.22 102.9 110.546C100.994 107.259 98.8537 104.111 96.4955 101.126C91.6134 94.6822 87.0043 88.5941 87.0043 79.5246V50.6176C91.1316 44.5193 93.44 37.3926 93.6648 30.0546C93.4139 22.4279 90.9259 15.0387 86.5048 8.78908C86.261 8.49847 85.9556 8.26459 85.6103 8.10408C85.2649 7.94357 84.8881 7.86035 84.5066 7.86035C84.1251 7.86035 83.7483 7.94357 83.403 8.10408C83.0577 8.26459 82.7522 8.49847 82.5085 8.78908C78.0873 15.0387 75.5994 22.4279 75.3484 30.0546C75.5732 37.3926 77.8816 44.5193 82.0089 50.6176V79.5246C82.0089 88.5941 77.3999 94.6954 72.5177 101.126C70.1595 104.111 68.0194 107.259 66.1136 110.546C64.4942 110.22 62.8472 110.048 61.1949 110.031C59.2076 110.031 57.3017 109.249 55.8965 107.858C54.4912 106.466 53.7018 104.579 53.7018 102.611C53.7018 100.643 54.4912 98.7551 55.8965 97.3635C57.3017 95.9719 59.2076 95.1901 61.1949 95.1901C61.5461 95.1899 61.8933 95.1164 62.2139 94.9743C62.5344 94.8322 62.8212 94.6248 63.0553 94.3655C63.2894 94.1063 63.4657 93.801 63.5726 93.4697C63.6796 93.1384 63.7148 92.7885 63.6759 92.4429L59.6163 56.2539C57.8484 40.6967 50.8041 26.1935 39.6348 15.1146C39.2855 14.7692 38.8406 14.5339 38.3564 14.4387C37.8722 14.3434 37.3704 14.3924 36.9142 14.5794C36.4581 14.7665 36.0682 15.0832 35.7937 15.4895C35.5192 15.8959 35.3725 16.3737 35.3721 16.8626V132.293C35.3721 132.949 35.6352 133.578 36.1036 134.042C36.572 134.505 37.2073 134.766 37.8698 134.766H63.5127C68.1218 149.403 82.1422 160.016 82.9847 160.642C83.4239 160.965 83.9563 161.139 84.5033 161.139C85.0503 161.139 85.5827 160.965 86.0219 160.642C86.8645 160.016 100.885 149.403 105.494 134.766H131.13C131.793 134.766 132.428 134.505 132.896 134.042C133.365 133.578 133.628 132.949 133.628 132.293V16.8626C133.627 16.3737 133.481 15.8959 133.206 15.4895C132.932 15.0832 132.542 14.7665 132.086 14.5794C131.63 14.3924 131.128 14.3434 130.644 14.4387C130.159 14.5339 129.714 14.7692 129.365 15.1146ZM40.3808 23.2739C48.2996 32.855 53.255 44.4975 54.6509 56.8014L58.4374 90.5465C56.0983 91.0787 53.963 92.2658 52.2861 93.9662C50.6092 95.6666 49.4614 97.8087 48.9795 100.137H40.3808V23.2739ZM62.0274 125.697C62.037 127.077 62.1483 128.455 62.3604 129.819H40.3808V105.084H48.9562C49.5365 107.875 51.07 110.382 53.2985 112.184C55.527 113.986 58.3145 114.973 61.1915 114.978C62.1067 114.992 63.02 115.065 63.9257 115.196C62.6587 118.554 62.0156 122.112 62.0274 125.697ZM80.3438 30.0546C80.4925 24.7792 81.9202 19.6167 84.5066 15.0025C87.0931 19.6167 88.5208 24.7792 88.6695 30.0546C88.5208 35.3299 87.0931 40.4925 84.5066 45.1067C81.9202 40.4925 80.4925 35.3299 80.3438 30.0546ZM67.0228 125.697C67.0149 122.524 67.6197 119.38 68.8045 116.433C71.7849 117.576 74.4639 119.375 76.639 121.694C78.814 124.013 80.4282 126.791 81.3596 129.819H67.4025C67.1553 128.458 67.0283 127.079 67.0228 125.697ZM82.0089 153.271C76.2773 148.141 71.7585 141.823 68.7745 134.766H82.0089V153.271ZM84.5066 124.292C81.6759 118.699 76.8845 114.32 71.0291 111.974C72.7042 109.246 74.5355 106.615 76.514 104.095C79.6774 100.241 82.3609 96.0246 84.5066 91.5359C86.6524 96.0246 89.3359 100.241 92.4993 104.095C94.4777 106.615 96.309 109.246 97.9842 111.974C92.1287 114.32 87.3373 118.699 84.5066 124.292ZM87.0043 153.271V134.766H100.239C97.2548 141.823 92.736 148.141 87.0043 153.271ZM101.611 129.819H87.6537C88.585 126.791 90.1992 124.013 92.3743 121.694C94.5494 119.375 97.2284 117.576 100.209 116.433C101.394 119.38 101.998 122.524 101.99 125.697C101.985 127.079 101.858 128.458 101.611 129.819ZM128.633 129.819H106.653C106.865 128.455 106.976 127.077 106.986 125.697C106.998 122.112 106.355 118.554 105.088 115.196C105.992 115.065 106.904 114.992 107.818 114.978C110.695 114.973 113.483 113.986 115.711 112.184C117.94 110.382 119.473 107.875 120.054 105.084H128.633V129.819ZM128.633 100.137H120.034C119.552 97.8087 118.404 95.6666 116.727 93.9662C115.05 92.2658 112.915 91.0787 110.576 90.5465L114.362 56.8014C115.758 44.4975 120.714 32.855 128.633 23.2739V100.137Z" fill="url(#paint0_radial_98_903)"/>
<defs>
<radialGradient id="paint0_radial_98_903" cx="0" cy="0" r="1" gradientUnits="userSpaceOnUse" gradientTransform="translate(117.903 8.08089) rotate(93.4542) scale(192.187 383.191)">
<stop stop-color="#00E0FF"/>
<stop offset="0.895" stop-color="#0047FF"/>
</radialGradient>
</defs>
</svg>
